<svg width="340" height="74" viewBox="0 0 340 74" fill="none" xmlns="http://www.w3.org/2000/svg">
<g clip-path="url(#clip0)">
<path fill-rule="evenodd" clip-rule="evenodd" d="M18.7 33.5L29.8 0.199997L0.100006 29.8L18.7 33.5Z" fill="#FFCC00"/>
<path fill-rule="evenodd" clip-rule="evenodd" d="M29.8 0.199997L18.7 33.5H29.8H40.9L29.8 0.199997Z" fill="#EF7C00"/>
<path fill-rule="evenodd" clip-rule="evenodd" d="M40.9 33.5L29.8 0.199997L59.4 29.8L40.9 33.5Z" fill="#E6370D"/>
<path fill-rule="evenodd" clip-rule="evenodd" d="M0.100006 29.8L29.8 74.3L18.7 33.5L0.100006 29.8Z" fill="#F7A600"/>
<path fill-rule="evenodd" clip-rule="evenodd" d="M59.4 29.8L29.8 74.3L40.9 33.5L59.4 29.8Z" fill="#EB5C05"/>
<path fill-rule="evenodd" clip-rule="evenodd" d="M29.8 74.3L40.9 33.5H29.8H18.7L29.8 74.3Z" fill="#F08300"/>
<path fill-rule="evenodd" clip-rule="evenodd" d="M18.7 33.5L29.8 0.199997L0.100006 29.8L18.7 33.5Z" fill="#FFCC00"/>
<path fill-rule="evenodd" clip-rule="evenodd" d="M29.8 0.199997L18.7 33.5H29.8H40.9L29.8 0.199997Z" fill="#EF7C00"/>
<path fill-rule="evenodd" clip-rule="evenodd" d="M40.9 33.5L29.8 0.199997L59.4 29.8L40.9 33.5Z" fill="#E6370D"/>
<path fill-rule="evenodd" clip-rule="evenodd" d="M0.100006 29.8L29.8 74.3L18.7 33.5L0.100006 29.8Z" fill="#F7A600"/>
<path fill-rule="evenodd" clip-rule="evenodd" d="M59.4 29.8L29.8 74.3L40.9 33.5L59.4 29.8Z" fill="#EB5C05"/>
<path fill-rule="evenodd" clip-rule="evenodd" d="M29.8 74.3L40.9 33.5H29.8H18.7L29.8 74.3Z" fill="#F08300"/>
<path fill-rule="evenodd" clip-rule="evenodd" d="M132 59.5H122.2L117.8 30.5L104.5 59.4H102.2L88.9 30.5L84.6 59.5H74.8L81.7 15H91.3L103.4 42.3L115.4 15H125.1L132 59.5Z" fill="white"/>
<path fill-rule="evenodd" clip-rule="evenodd" d="M160.9 25.2H170.8L155.8 59C154.4 62.2 153 64.7 151.6 66.5C150.2 68.3 148.7 69.6 146.9 70.5C145.1 71.4 142.9 71.8 140.4 71.8H136.6V63.5H139.8C142 63.5 143.6 63.1 144.5 62.3C145.4 61.5 146.4 59.8 147.5 57.1L147.6 56.8L133.1 25.2H143.2L152.3 46.3L160.9 25.2Z" fill="white"/>
<path fill-rule="evenodd" clip-rule="evenodd" d="M192.9 25H195.9V33.7H191.9C189.3 33.7 187.4 34.3 186.3 35.6C185.2 36.8 184.6 38.8 184.6 41.7V59.5H175.3V25.2H181.2L182.8 29.4C185.3 26.5 188.6 25 192.9 25Z" fill="white"/>
<path d="M210.5 25.2H201.2V59.5H210.5V25.2Z" fill="white"/>
<path fill-rule="evenodd" clip-rule="evenodd" d="M247.3 25.1H254.2V59.4H247L246.2 56.3C243.1 59 239.4 60.4 235.1 60.4C231.7 60.4 228.6 59.6 225.9 58C223.1 56.4 221 54.3 219.5 51.5C217.9 48.7 217.2 45.6 217.2 42.2C217.2 38.8 218 35.7 219.5 33C221 30.2 223.2 28.1 225.9 26.5C228.7 24.9 231.7 24.2 235.1 24.2C239.5 24.2 243.2 25.6 246.4 28.4L247.3 25.1ZM229.1 49C230.9 50.8 233.1 51.7 235.8 51.7C238.5 51.7 240.7 50.8 242.5 49C244.3 47.2 245.1 45 245.1 42.3C245.1 39.6 244.2 37.3 242.5 35.6C240.7 33.8 238.5 32.9 235.8 32.9C233.1 32.9 230.9 33.8 229.1 35.6C227.3 37.4 226.5 39.6 226.5 42.3C226.5 45 227.4 47.2 229.1 49Z" fill="white"/>
<path fill-rule="evenodd" clip-rule="evenodd" d="M288.7 15H298L297.6 59.4H290.7L289.6 56.5C286.6 59.1 283 60.4 278.8 60.4C273.6 60.4 269.3 58.7 265.9 55.2C262.5 51.8 260.8 47.4 260.8 42.2C260.8 39.6 261.3 37.2 262.2 35C263.1 32.8 264.4 30.8 265.9 29.2C267.5 27.6 269.4 26.4 271.6 25.4C273.8 24.5 276.2 24 278.8 24C282.3 24 285.4 24.9 288.2 26.8L288.7 15ZM273 49.1C274.8 50.9 277 51.8 279.7 51.8C282.4 51.8 284.6 50.9 286.4 49.1C288.2 47.3 289 45.1 289 42.4C289 39.7 288.1 37.5 286.4 35.7C284.6 33.9 282.4 33 279.7 33C277 33 274.8 33.9 273 35.7C271.2 37.5 270.4 39.7 270.4 42.4C270.3 45.1 271.2 47.3 273 49.1Z" fill="white"/>
<path fill-rule="evenodd" clip-rule="evenodd" d="M339.7 42.2C339.7 43.1 339.6 44 339.5 44.9H313.6C314 47.2 314.9 49 316.4 50.3C317.9 51.5 319.7 52.2 322 52.2C323.6 52.2 325 51.9 326.3 51.2C327.6 50.5 328.6 49.5 329.3 48.3H339C337.8 52 335.6 55 332.6 57.2C329.5 59.4 326 60.5 322.1 60.5C318.8 60.5 315.8 59.7 313 58.1C310.3 56.5 308.1 54.3 306.6 51.6C305 48.8 304.3 45.8 304.3 42.4C304.3 39 305.1 35.9 306.6 33.2C308.1 30.4 310.3 28.3 313 26.7C315.7 25.1 318.7 24.3 322.1 24.3C325.5 24.3 328.6 25.1 331.3 26.7C334 28.3 336.1 30.5 337.6 33.2C339 35.9 339.7 38.9 339.7 42.2ZM322 32.1C319.9 32.1 318.2 32.7 316.8 33.8C315.4 34.9 314.4 36.5 313.9 38.6H330.5C329.9 36.5 328.8 34.9 327.3 33.8C325.8 32.7 324.1 32.1 322 32.1Z" fill="white"/>
<path fill-rule="evenodd" clip-rule="evenodd" d="M205.8 9.59999C208.8 9.59999 211.2 12 211.2 15C211.2 18 208.8 20.4 205.8 20.4C202.8 20.4 200.4 18 200.4 15C200.4 12 202.9 9.59999 205.8 9.59999Z" fill="white"/>
</g>
<defs>
<clipPath id="clip0">
<rect width="340" height="74" fill="white"/>
</clipPath>
</defs>
</svg>
