<svg width="420" height="530" xmlns="http://www.w3.org/2000/svg">
 <style type="text/css">.st0{fill-rule:evenodd;clip-rule:evenodd;fill:#FFCC00;}
	.st1{fill-rule:evenodd;clip-rule:evenodd;fill:#EF7C00;}
	.st2{fill-rule:evenodd;clip-rule:evenodd;fill:#E6370D;}
	.st3{fill-rule:evenodd;clip-rule:evenodd;fill:#F7A600;}
	.st4{fill-rule:evenodd;clip-rule:evenodd;fill:#EB5C05;}
	.st5{fill-rule:evenodd;clip-rule:evenodd;fill:#F08300;}</style>

 <g>
  <title>background</title>
  <rect fill="none" id="canvas_background" height="532" width="422" y="-1" x="-1"/>
 </g>
 <g>
  <title>Layer 1</title>
  <g id="Layer_1"/>
  <g id="Layer_2">
   <g id="svg_1">
    <polygon id="svg_2" points="135.60000610351562,237.20001220703125 211.89999389648438,8.099998474121094 8.300003051757812,211.6999969482422 " class="st0"/>
    <polygon id="svg_3" points="211.89999389648438,8.099998474121094 135.5,237.20001220703125 211.79998779296875,237.20001220703125 212.10000610351562,237.20001220703125 288.3999938964844,237.20001220703125 " class="st1"/>
    <polygon id="svg_4" points="288.29998779296875,237.20001220703125 211.89999389648438,8.099998474121094 415.5,211.6999969482422 " class="st2"/>
    <polygon id="svg_5" points="8.300003051757812,211.6999969482422 211.89999389648438,517.0999755859375 135.5,237.20001220703125 " class="st3"/>
    <polygon id="svg_6" points="415.5,211.6999969482422 211.89999389648438,517.0999755859375 288.3999938964844,237.20001220703125 " class="st4"/>
    <polygon id="svg_7" points="211.89999389648438,517.0999755859375 288.3999938964844,237.20001220703125 288.29998779296875,237.20001220703125 212.10000610351562,237.20001220703125 211.79998779296875,237.20001220703125 135.60000610351562,237.20001220703125 135.5,237.20001220703125 " class="st5"/>
   </g>
   <g id="svg_8">
    <polygon id="svg_9" points="135.60000610351562,237.20001220703125 211.89999389648438,8.099998474121094 8.300003051757812,211.6999969482422 " class="st0"/>
    <polygon id="svg_10" points="211.89999389648438,8.099998474121094 135.5,237.20001220703125 211.79998779296875,237.20001220703125 212.10000610351562,237.20001220703125 288.3999938964844,237.20001220703125 " class="st1"/>
    <polygon id="svg_11" points="288.29998779296875,237.20001220703125 211.89999389648438,8.099998474121094 415.5,211.6999969482422 " class="st2"/>
    <polygon id="svg_12" points="8.300003051757812,211.6999969482422 211.89999389648438,517.0999755859375 135.5,237.20001220703125 " class="st3"/>
    <polygon id="svg_13" points="415.5,211.6999969482422 211.89999389648438,517.0999755859375 288.3999938964844,237.20001220703125 " class="st4"/>
    <polygon id="svg_14" points="211.89999389648438,517.0999755859375 288.3999938964844,237.20001220703125 288.29998779296875,237.20001220703125 212.10000610351562,237.20001220703125 211.79998779296875,237.20001220703125 135.60000610351562,237.20001220703125 135.5,237.20001220703125 " class="st5"/>
   </g>
  </g>
 </g>
</svg>