<svg width="737" height="167" xmlns="http://www.w3.org/2000/svg">
 <style type="text/css">.st0{fill-rule:evenodd;clip-rule:evenodd;fill:#FFCC00;}
	.st1{fill-rule:evenodd;clip-rule:evenodd;fill:#EF7C00;}
	.st2{fill-rule:evenodd;clip-rule:evenodd;fill:#E6370D;}
	.st3{fill-rule:evenodd;clip-rule:evenodd;fill:#F7A600;}
	.st4{fill-rule:evenodd;clip-rule:evenodd;fill:#EB5C05;}
	.st5{fill-rule:evenodd;clip-rule:evenodd;fill:#F08300;}
	.st6{fill-rule:evenodd;clip-rule:evenodd;}</style>

 <g>
  <title>background</title>
  <rect fill="none" id="canvas_background" height="169" width="739" y="-1" x="-1"/>
 </g>
 <g>
  <title>Layer 1</title>
  <g id="Layer_1"/>
  <g id="Layer_2">
   <g id="svg_1">
    <g id="svg_2">
     <polygon id="svg_3" points="42.56923294067383,74.23076266050339 66.46923065185547,2.530772864818573 2.669231653213501,66.33076876401901 " class="st0"/>
     <polygon id="svg_4" points="66.46923065185547,2.530772864818573 42.4692268371582,74.23076266050339 66.36923217773438,74.23076266050339 66.46923065185547,74.23076266050339 90.3692398071289,74.23076266050339 " class="st1"/>
     <polygon id="svg_5" points="90.3692398071289,74.23076266050339 66.46923065185547,2.530772864818573 130.16921997070312,66.33076876401901 " class="st2"/>
     <polygon id="svg_6" points="2.669231653213501,66.33076876401901 66.46923065185547,161.9307901263237 42.4692268371582,74.23076266050339 " class="st3"/>
     <polygon id="svg_7" points="130.16921997070312,66.33076876401901 66.46923065185547,161.9307901263237 90.3692398071289,74.23076266050339 " class="st4"/>
     <polygon id="svg_8" points="66.46923065185547,161.9307901263237 90.3692398071289,74.23076266050339 90.3692398071289,74.23076266050339 66.46923065185547,74.23076266050339 66.36923217773438,74.23076266050339 42.56923294067383,74.23076266050339 42.4692268371582,74.23076266050339 " class="st5"/>
    </g>
    <g id="svg_9">
     <polygon id="svg_10" points="42.56923294067383,74.23076266050339 66.46923065185547,2.530772864818573 2.669231653213501,66.33076876401901 " class="st0"/>
     <polygon id="svg_11" points="66.46923065185547,2.530772864818573 42.4692268371582,74.23076266050339 66.36923217773438,74.23076266050339 66.46923065185547,74.23076266050339 90.3692398071289,74.23076266050339 " class="st1"/>
     <polygon id="svg_12" points="90.3692398071289,74.23076266050339 66.46923065185547,2.530772864818573 130.16921997070312,66.33076876401901 " class="st2"/>
     <polygon id="svg_13" points="2.669231653213501,66.33076876401901 66.46923065185547,161.9307901263237 42.4692268371582,74.23076266050339 " class="st3"/>
     <polygon id="svg_14" points="130.16921997070312,66.33076876401901 66.46923065185547,161.9307901263237 90.3692398071289,74.23076266050339 " class="st4"/>
     <polygon id="svg_15" points="66.46923065185547,161.9307901263237 90.3692398071289,74.23076266050339 90.3692398071289,74.23076266050339 66.46923065185547,74.23076266050339 66.36923217773438,74.23076266050339 42.56923294067383,74.23076266050339 42.4692268371582,74.23076266050339 " class="st5"/>
    </g>
    <polygon id="svg_16" points="286.0692138671875,130.13077181577682 265.0692138671875,130.13077181577682 255.66921997070312,67.73076266050339 227.16921997070312,129.9307901263237 222.0692138671875,129.9307901263237 193.56922912597656,67.83076876401901 184.16921997070312,130.13077181577682 163.06922912597656,130.13077181577682 178.06922912597656,34.53077334165573 198.76922607421875,34.53077334165573 224.5692138671875,93.13075655698776 250.5692138671875,34.53077334165573 271.26922607421875,34.53077334165573 " class="st6"/>
    <path id="svg_17" d="m348.269226,56.430782l21.200012,0l-32.100006,72.700016c-3.100006,6.899994 -6,12.299988 -9,16.099976c-2.899994,3.800018 -6.300018,6.700012 -10.200012,8.600006c-3.899994,1.899994 -8.600006,2.800018 -14.100006,2.800018l-8.199982,0l0,-17.900024l6.899994,0c4.700012,0 8.100006,-0.899994 10.100006,-2.599976c2,-1.800018 4.199982,-5.5 6.5,-11.100014l0.299988,-0.600006l-31.199982,-67.999996l21.599976,0l19.700012,45.299984l18.5,-45.299984z" class="st6"/>
    <path id="svg_18" d="m417.16922,56.030758l6.5,0l0,18.799984l-8.600006,0c-5.600006,0 -9.600006,1.300018 -12,4c-2.399994,2.600006 -3.600006,7 -3.600006,13l0,38.300026l-19.899994,0l0,-73.700016l12.700012,0l3.5,9.100002c5,-6.39999 12.200012,-9.499996 21.399994,-9.499996z" class="st6"/>
    <rect id="svg_19" height="73.7" width="19.9" class="st6" y="56.43077" x="434.96923"/>
    <path id="svg_20" d="m534.069214,56.330776l14.900024,0l0,73.699986l-15.700012,0l-1.700012,-6.599983c-6.700012,5.900002 -14.599976,8.799995 -23.900024,8.799995c-7.299988,0 -13.899963,-1.700012 -19.799988,-5.100014c-5.899963,-3.399994 -10.5,-8 -13.799988,-14c-3.299988,-6 -5,-12.600006 -5,-19.899994c0,-7.299988 1.700012,-13.899994 5,-19.799988c3.299988,-5.900024 7.900024,-10.600002 13.799988,-13.900021c5.900024,-3.299988 12.5,-5 19.799988,-5c9.400024,0 17.400024,3 24.200012,9l2.200012,-7.199982l0,0zm-39.099976,51.199978c3.799988,3.799988 8.599976,5.799988 14.400024,5.799988c5.799988,0 10.599976,-1.899994 14.299988,-5.699982c3.799988,-3.800018 5.700012,-8.600006 5.700012,-14.5c0,-5.800018 -1.900024,-10.600006 -5.700012,-14.5c-3.799988,-3.800018 -8.600037,-5.700012 -14.299988,-5.700012c-5.800049,0 -10.600037,1.899994 -14.400024,5.800018c-3.799988,3.799988 -5.700012,8.599976 -5.700012,14.399994c0,5.800018 1.900024,10.600006 5.700012,14.399994z" class="st6"/>
    <path id="svg_21" d="m622.969238,34.530773l19.900024,0l-0.800049,95.499989l-14.699951,0l-2.300049,-6.099983c-6.5,5.599983 -14.199951,8.299995 -23.099976,8.299995c-11.099976,0 -20.400024,-3.700027 -27.700012,-11.100014c-7.299988,-7.399994 -11,-16.699982 -11,-27.899994c0,-5.5 1,-10.700012 2.900024,-15.5c2,-4.799988 4.599976,-8.899994 8,-12.399994c3.399963,-3.39999 7.5,-6.100002 12.299988,-8.100002c4.799988,-2 10,-3 15.5,-3c7.5,0 14.299988,2 20.299988,6l0.700012,-25.699997l0,0zm-33.700012,73.199993c3.799988,3.799988 8.599976,5.700012 14.299988,5.700012c5.799988,0 10.600037,-1.900024 14.400024,-5.800018c3.799988,-3.799988 5.700012,-8.600006 5.700012,-14.399994c0,-5.799988 -1.900024,-10.600006 -5.700012,-14.399994c-3.799988,-3.800018 -8.600037,-5.800018 -14.400024,-5.800018c-5.799988,0 -10.599976,1.900024 -14.299988,5.700012c-3.799988,3.799988 -5.700012,8.600006 -5.700012,14.5c0,5.899994 1.900024,10.700012 5.700012,14.5z" class="st6"/>
    <path id="svg_22" d="m732.66925,93.030754c0,2 -0.099976,4 -0.400024,5.899994l-55.799988,0c0.799988,5 2.799988,8.899994 6,11.600006c3.200012,2.700012 7.200012,4 12,4c3.400024,0 6.5,-0.700012 9.200012,-2.299988c2.799988,-1.5 4.900024,-3.600006 6.400024,-6.300018l20.899963,0c-2.700012,8.100006 -7.299988,14.399994 -13.799988,19.200012c-6.599976,4.699989 -14.099976,7.100014 -22.700012,7.100014c-7.200012,0 -13.599976,-1.700012 -19.5,-5.100014c-5.799988,-3.399994 -10.399963,-8.100006 -13.799988,-14c-3.299988,-6 -5,-12.600006 -5,-19.800018c0,-7.299988 1.700012,-13.899994 5,-19.899994c3.299988,-6 7.900024,-10.600002 13.700012,-13.999996c5.799988,-3.399994 12.299988,-5.100006 19.599976,-5.100006c7.400024,0 14,1.800018 19.900024,5.200012c5.899963,3.5 10.399963,8.200008 13.5,13.999996c3.299988,5.900024 4.799988,12.400024 4.799988,19.5l0,0zm-38,-21.699982c-4.400024,0 -8.099976,1.200012 -11.200012,3.700012c-3,2.5 -5.200012,5.899994 -6.299988,10.299988l35.599976,0c-1.400024,-4.5 -3.599976,-7.899994 -6.799988,-10.299988c-3.100037,-2.500031 -6.900024,-3.700012 -11.299988,-3.700012z" class="st6"/>
    <path id="svg_23" d="m444.969238,22.930767c6.399994,0 11.600006,5.199997 11.600006,11.600006c0,6.399994 -5.200012,11.599991 -11.600006,11.599991c-6.399994,0 -11.600006,-5.199997 -11.600006,-11.599991c-0.100006,-6.400009 5.100006,-11.600006 11.600006,-11.600006z" class="st6"/>
   </g>
  </g>
 </g>
</svg>