<svg width="530" height="530" xmlns="http://www.w3.org/2000/svg">
 <style type="text/css">.st0{fill-rule:evenodd;clip-rule:evenodd;fill:#FFCC00;}
	.st1{fill-rule:evenodd;clip-rule:evenodd;fill:#EF7C00;}
	.st2{fill-rule:evenodd;clip-rule:evenodd;fill:#E6370D;}
	.st3{fill-rule:evenodd;clip-rule:evenodd;fill:#F7A600;}
	.st4{fill-rule:evenodd;clip-rule:evenodd;fill:#EB5C05;}
	.st5{fill-rule:evenodd;clip-rule:evenodd;fill:#F08300;}</style>

 <g>
  <title>background</title>
  <rect x="-1" y="-1" width="532" height="532" id="canvas_background" fill="none"/>
 </g>
 <g>
  <title>Layer 1</title>
  <g id="Layer_1"/>
  <g id="Layer_2">
   <g id="svg_1">
    <polygon class="st0" points="189.3000030517578,237.20001220703125 265.5999755859375,8.099998474121094 62,211.6999969482422 " id="svg_2"/>
    <polygon class="st1" points="265.5999755859375,8.099998474121094 189.1999969482422,237.20001220703125 265.5,237.20001220703125 265.79998779296875,237.20001220703125 342.0999755859375,237.20001220703125 " id="svg_3"/>
    <polygon class="st2" points="342,237.20001220703125 265.5999755859375,8.099998474121094 469.20001220703125,211.6999969482422 " id="svg_4"/>
    <polygon class="st3" points="62,211.6999969482422 265.5999755859375,517.0999755859375 189.1999969482422,237.20001220703125 " id="svg_5"/>
    <polygon class="st4" points="469.20001220703125,211.6999969482422 265.5999755859375,517.0999755859375 342.0999755859375,237.20001220703125 " id="svg_6"/>
    <polygon class="st5" points="265.5999755859375,517.0999755859375 342.0999755859375,237.20001220703125 342,237.20001220703125 265.79998779296875,237.20001220703125 265.5,237.20001220703125 189.3000030517578,237.20001220703125 189.1999969482422,237.20001220703125 " id="svg_7"/>
   </g>
   <g id="svg_8">
    <polygon class="st0" points="189.3000030517578,237.20001220703125 265.5999755859375,8.099998474121094 62,211.6999969482422 " id="svg_9"/>
    <polygon class="st1" points="265.5999755859375,8.099998474121094 189.1999969482422,237.20001220703125 265.5,237.20001220703125 265.79998779296875,237.20001220703125 342.0999755859375,237.20001220703125 " id="svg_10"/>
    <polygon class="st2" points="342,237.20001220703125 265.5999755859375,8.099998474121094 469.20001220703125,211.6999969482422 " id="svg_11"/>
    <polygon class="st3" points="62,211.6999969482422 265.5999755859375,517.0999755859375 189.1999969482422,237.20001220703125 " id="svg_12"/>
    <polygon class="st4" points="469.20001220703125,211.6999969482422 265.5999755859375,517.0999755859375 342.0999755859375,237.20001220703125 " id="svg_13"/>
    <polygon class="st5" points="265.5999755859375,517.0999755859375 342.0999755859375,237.20001220703125 342,237.20001220703125 265.79998779296875,237.20001220703125 265.5,237.20001220703125 189.3000030517578,237.20001220703125 189.1999969482422,237.20001220703125 " id="svg_14"/>
   </g>
  </g>
 </g>
</svg>