<?xml version="1.0" encoding="utf-8"?>
<!-- Generator: Adobe Illustrator 23.0.1, SVG Export Plug-In . SVG Version: 6.00 Build 0)  -->
<svg version="1.1" xmlns="http://www.w3.org/2000/svg" xmlns:xlink="http://www.w3.org/1999/xlink" x="0px" y="0px"
	 viewBox="0 0 841.9 595.3" style="enable-background:new 0 0 841.9 595.3;" xml:space="preserve">
<style type="text/css">
	.st0{fill-rule:evenodd;clip-rule:evenodd;fill:#FFCC00;}
	.st1{fill-rule:evenodd;clip-rule:evenodd;fill:#EF7C00;}
	.st2{fill-rule:evenodd;clip-rule:evenodd;fill:#E6370D;}
	.st3{fill-rule:evenodd;clip-rule:evenodd;fill:#F7A600;}
	.st4{fill-rule:evenodd;clip-rule:evenodd;fill:#EB5C05;}
	.st5{fill-rule:evenodd;clip-rule:evenodd;fill:#F08300;}
</style>
<g id="Layer_1">
</g>
<g id="Layer_2">
	<g>
		<polygon class="st0" points="344.6,272.2 420.9,43.1 217.3,246.7 		"/>
		<polygon class="st1" points="420.9,43.1 344.5,272.2 420.8,272.2 421.1,272.2 497.4,272.2 		"/>
		<polygon class="st2" points="497.3,272.2 420.9,43.1 624.5,246.7 		"/>
		<polygon class="st3" points="217.3,246.7 420.9,552.1 344.5,272.2 		"/>
		<polygon class="st4" points="624.5,246.7 420.9,552.1 497.4,272.2 		"/>
		<polygon class="st5" points="420.9,552.1 497.4,272.2 497.3,272.2 421.1,272.2 420.8,272.2 344.6,272.2 344.5,272.2 		"/>
	</g>
	<g>
		<polygon class="st0" points="344.6,272.2 420.9,43.1 217.3,246.7 		"/>
		<polygon class="st1" points="420.9,43.1 344.5,272.2 420.8,272.2 421.1,272.2 497.4,272.2 		"/>
		<polygon class="st2" points="497.3,272.2 420.9,43.1 624.5,246.7 		"/>
		<polygon class="st3" points="217.3,246.7 420.9,552.1 344.5,272.2 		"/>
		<polygon class="st4" points="624.5,246.7 420.9,552.1 497.4,272.2 		"/>
		<polygon class="st5" points="420.9,552.1 497.4,272.2 497.3,272.2 421.1,272.2 420.8,272.2 344.6,272.2 344.5,272.2 		"/>
	</g>
</g>
</svg>
