<?xml version="1.0" encoding="utf-8"?>
<!-- Generator: Adobe Illustrator 23.0.1, SVG Export Plug-In . SVG Version: 6.00 Build 0)  -->
<svg version="1.1" xmlns="http://www.w3.org/2000/svg" xmlns:xlink="http://www.w3.org/1999/xlink" x="0px" y="0px"
	 viewBox="0 0 841.9 595.3" style="enable-background:new 0 0 841.9 595.3;" xml:space="preserve">
<style type="text/css">
	.st0{fill-rule:evenodd;clip-rule:evenodd;fill:#FFCC00;}
	.st1{fill-rule:evenodd;clip-rule:evenodd;fill:#EF7C00;}
	.st2{fill-rule:evenodd;clip-rule:evenodd;fill:#E6370D;}
	.st3{fill-rule:evenodd;clip-rule:evenodd;fill:#F7A600;}
	.st4{fill-rule:evenodd;clip-rule:evenodd;fill:#EB5C05;}
	.st5{fill-rule:evenodd;clip-rule:evenodd;fill:#F08300;}
	.st6{fill-rule:evenodd;clip-rule:evenodd;}
</style>
<g id="Layer_1">
</g>
<g id="Layer_2">
	<g>
		<g>
			<polygon class="st0" points="95.8,276 119.7,204.3 55.9,268.1 			"/>
			<polygon class="st1" points="119.7,204.3 95.7,276 119.6,276 119.7,276 143.6,276 			"/>
			<polygon class="st2" points="143.6,276 119.7,204.3 183.4,268.1 			"/>
			<polygon class="st3" points="55.9,268.1 119.7,363.7 95.7,276 			"/>
			<polygon class="st4" points="183.4,268.1 119.7,363.7 143.6,276 			"/>
			<polygon class="st5" points="119.7,363.7 143.6,276 143.6,276 119.7,276 119.6,276 95.8,276 95.7,276 			"/>
		</g>
		<g>
			<polygon class="st0" points="95.8,276 119.7,204.3 55.9,268.1 			"/>
			<polygon class="st1" points="119.7,204.3 95.7,276 119.6,276 119.7,276 143.6,276 			"/>
			<polygon class="st2" points="143.6,276 119.7,204.3 183.4,268.1 			"/>
			<polygon class="st3" points="55.9,268.1 119.7,363.7 95.7,276 			"/>
			<polygon class="st4" points="183.4,268.1 119.7,363.7 143.6,276 			"/>
			<polygon class="st5" points="119.7,363.7 143.6,276 143.6,276 119.7,276 119.6,276 95.8,276 95.7,276 			"/>
		</g>
		<polygon class="st6" points="339.3,331.9 318.3,331.9 308.9,269.5 280.4,331.7 275.3,331.7 246.8,269.6 237.4,331.9 216.3,331.9 
			231.3,236.3 252,236.3 277.8,294.9 303.8,236.3 324.5,236.3 		"/>
		<path class="st6" d="M401.5,258.2h21.2l-32.1,72.7c-3.1,6.9-6,12.3-9,16.1c-2.9,3.8-6.3,6.7-10.2,8.6c-3.9,1.9-8.6,2.8-14.1,2.8
			h-8.2v-17.9h6.9c4.7,0,8.1-0.9,10.1-2.6c2-1.8,4.2-5.5,6.5-11.1l0.3-0.6l-31.2-68h21.6l19.7,45.3L401.5,258.2z"/>
		<path class="st6" d="M470.4,257.8h6.5v18.8h-8.6c-5.6,0-9.6,1.3-12,4c-2.4,2.6-3.6,7-3.6,13v38.3h-19.9v-73.7h12.7l3.5,9.1
			C454,260.9,461.2,257.8,470.4,257.8z"/>
		<rect x="488.2" y="258.2" class="st6" width="19.9" height="73.7"/>
		<path class="st6" d="M587.3,258.1h14.9v73.7h-15.7l-1.7-6.6c-6.7,5.9-14.6,8.8-23.9,8.8c-7.3,0-13.9-1.7-19.8-5.1
			c-5.9-3.4-10.5-8-13.8-14c-3.3-6-5-12.6-5-19.9c0-7.3,1.7-13.9,5-19.8c3.3-5.9,7.9-10.6,13.8-13.9c5.9-3.3,12.5-5,19.8-5
			c9.4,0,17.4,3,24.2,9L587.3,258.1L587.3,258.1z M548.2,309.3c3.8,3.8,8.6,5.8,14.4,5.8c5.8,0,10.6-1.9,14.3-5.7
			c3.8-3.8,5.7-8.6,5.7-14.5c0-5.8-1.9-10.6-5.7-14.5c-3.8-3.8-8.6-5.7-14.3-5.7c-5.8,0-10.6,1.9-14.4,5.8
			c-3.8,3.8-5.7,8.6-5.7,14.4C542.5,300.7,544.4,305.5,548.2,309.3z"/>
		<path class="st6" d="M676.2,236.3h19.9l-0.8,95.5h-14.7l-2.3-6.1c-6.5,5.6-14.2,8.3-23.1,8.3c-11.1,0-20.4-3.7-27.7-11.1
			c-7.3-7.4-11-16.7-11-27.9c0-5.5,1-10.7,2.9-15.5c2-4.8,4.6-8.9,8-12.4c3.4-3.4,7.5-6.1,12.3-8.1c4.8-2,10-3,15.5-3
			c7.5,0,14.3,2,20.3,6L676.2,236.3L676.2,236.3z M642.5,309.5c3.8,3.8,8.6,5.7,14.3,5.7c5.8,0,10.6-1.9,14.4-5.8
			c3.8-3.8,5.7-8.6,5.7-14.4c0-5.8-1.9-10.6-5.7-14.4c-3.8-3.8-8.6-5.8-14.4-5.8c-5.8,0-10.6,1.9-14.3,5.7
			c-3.8,3.8-5.7,8.6-5.7,14.5C636.8,300.9,638.7,305.7,642.5,309.5z"/>
		<path class="st6" d="M785.9,294.8c0,2-0.1,4-0.4,5.9h-55.8c0.8,5,2.8,8.9,6,11.6c3.2,2.7,7.2,4,12,4c3.4,0,6.5-0.7,9.2-2.3
			c2.8-1.5,4.9-3.6,6.4-6.3h20.9c-2.7,8.1-7.3,14.4-13.8,19.2c-6.6,4.7-14.1,7.1-22.7,7.1c-7.2,0-13.6-1.7-19.5-5.1
			c-5.8-3.4-10.4-8.1-13.8-14c-3.3-6-5-12.6-5-19.8c0-7.3,1.7-13.9,5-19.9c3.3-6,7.9-10.6,13.7-14c5.8-3.4,12.3-5.1,19.6-5.1
			c7.4,0,14,1.8,19.9,5.2c5.9,3.5,10.4,8.2,13.5,14C784.4,281.2,785.9,287.7,785.9,294.8L785.9,294.8z M747.9,273.1
			c-4.4,0-8.1,1.2-11.2,3.7c-3,2.5-5.2,5.9-6.3,10.3H766c-1.4-4.5-3.6-7.9-6.8-10.3C756.1,274.3,752.3,273.1,747.9,273.1z"/>
		<path class="st6" d="M498.2,224.7c6.4,0,11.6,5.2,11.6,11.6c0,6.4-5.2,11.6-11.6,11.6c-6.4,0-11.6-5.2-11.6-11.6
			C486.5,229.9,491.7,224.7,498.2,224.7z"/>
	</g>
</g>
</svg>
