<svg width="808.9" height="184.3" xmlns="http://www.w3.org/2000/svg">
 <style type="text/css">.st0{fill-rule:evenodd;clip-rule:evenodd;fill:#FFCC00;}
	.st1{fill-rule:evenodd;clip-rule:evenodd;fill:#EF7C00;}
	.st2{fill-rule:evenodd;clip-rule:evenodd;fill:#E6370D;}
	.st3{fill-rule:evenodd;clip-rule:evenodd;fill:#F7A600;}
	.st4{fill-rule:evenodd;clip-rule:evenodd;fill:#EB5C05;}
	.st5{fill-rule:evenodd;clip-rule:evenodd;fill:#F08300;}
	.st6{fill-rule:evenodd;clip-rule:evenodd;}</style>

 <g>
  <title>background</title>
  <rect fill="none" id="canvas_background" height="186.3" width="810.9" y="-1" x="-1"/>
 </g>
 <g>
  <title>Layer 1</title>
  <g id="Layer_1"/>
  <g id="Layer_2">
   <g id="svg_1">
    <g id="svg_2">
     <polygon id="svg_3" points="66.80000305175781,79.69999694824219 90.69999694824219,8 26.900001525878906,71.80000305175781 " class="st0"/>
     <polygon id="svg_4" points="90.69999694824219,8 66.69999694824219,79.69999694824219 90.5999984741211,79.69999694824219 90.69999694824219,79.69999694824219 114.60000610351562,79.69999694824219 " class="st1"/>
     <polygon id="svg_5" points="114.60000610351562,79.69999694824219 90.69999694824219,8 154.39999389648438,71.80000305175781 " class="st2"/>
     <polygon id="svg_6" points="26.900001525878906,71.80000305175781 90.69999694824219,167.40000915527344 66.69999694824219,79.69999694824219 " class="st3"/>
     <polygon id="svg_7" points="154.39999389648438,71.80000305175781 90.69999694824219,167.40000915527344 114.60000610351562,79.69999694824219 " class="st4"/>
     <polygon id="svg_8" points="90.69999694824219,167.40000915527344 114.60000610351562,79.69999694824219 114.60000610351562,79.69999694824219 90.69999694824219,79.69999694824219 90.5999984741211,79.69999694824219 66.80000305175781,79.69999694824219 66.69999694824219,79.69999694824219 " class="st5"/>
    </g>
    <g id="svg_9">
     <polygon id="svg_10" points="66.80000305175781,79.69999694824219 90.69999694824219,8 26.900001525878906,71.80000305175781 " class="st0"/>
     <polygon id="svg_11" points="90.69999694824219,8 66.69999694824219,79.69999694824219 90.5999984741211,79.69999694824219 90.69999694824219,79.69999694824219 114.60000610351562,79.69999694824219 " class="st1"/>
     <polygon id="svg_12" points="114.60000610351562,79.69999694824219 90.69999694824219,8 154.39999389648438,71.80000305175781 " class="st2"/>
     <polygon id="svg_13" points="26.900001525878906,71.80000305175781 90.69999694824219,167.40000915527344 66.69999694824219,79.69999694824219 " class="st3"/>
     <polygon id="svg_14" points="154.39999389648438,71.80000305175781 90.69999694824219,167.40000915527344 114.60000610351562,79.69999694824219 " class="st4"/>
     <polygon id="svg_15" points="90.69999694824219,167.40000915527344 114.60000610351562,79.69999694824219 114.60000610351562,79.69999694824219 90.69999694824219,79.69999694824219 90.5999984741211,79.69999694824219 66.80000305175781,79.69999694824219 66.69999694824219,79.69999694824219 " class="st5"/>
    </g>
    <polygon id="svg_16" points="310.29998779296875,135.59999084472656 289.29998779296875,135.59999084472656 279.8999938964844,73.19999694824219 251.39999389648438,135.40000915527344 246.29998779296875,135.40000915527344 217.8000030517578,73.30000305175781 208.39999389648438,135.59999084472656 187.3000030517578,135.59999084472656 202.3000030517578,40 223,40 248.79998779296875,98.59999084472656 274.79998779296875,40 295.5,40 " class="st6"/>
    <path id="svg_17" d="m372.5,61.899997l21.2,0l-32.1,72.7c-3.1,6.9 -6,12.3 -9,16.1c-2.9,3.8 -6.3,6.7 -10.2,8.6c-3.9,1.9 -8.6,2.8 -14.1,2.8l-8.2,0l0,-17.9l6.9,0c4.7,0 8.1,-0.9 10.1,-2.6c2,-1.8 4.2,-5.5 6.5,-11.1l0.3,-0.6l-31.2,-68l21.6,0l19.7,45.3l18.5,-45.3z" class="st6"/>
    <path id="svg_18" d="m441.4,61.499997l6.5,0l0,18.8l-8.6,0c-5.6,0 -9.6,1.3 -12,4c-2.4,2.6 -3.6,7 -3.6,13l0,38.3l-19.9,0l0,-73.7l12.7,0l3.5,9.1c5,-6.4 12.2,-9.5 21.4,-9.5z" class="st6"/>
    <rect id="svg_19" height="73.7" width="19.9" class="st6" y="61.899997" x="459.2"/>
    <path id="svg_20" d="m558.3,61.799997l14.9,0l0,73.7l-15.7,0l-1.7,-6.6c-6.7,5.9 -14.6,8.8 -23.9,8.8c-7.3,0 -13.9,-1.7 -19.8,-5.1c-5.9,-3.4 -10.5,-8 -13.8,-14c-3.3,-6 -5,-12.6 -5,-19.9c0,-7.3 1.7,-13.9 5,-19.8c3.3,-5.9 7.9,-10.6 13.8,-13.9c5.9,-3.3 12.5,-5 19.8,-5c9.4,0 17.4,3 24.2,9l2.2,-7.2l0,0zm-39.1,51.2c3.8,3.8 8.6,5.8 14.4,5.8c5.8,0 10.6,-1.9 14.3,-5.7c3.8,-3.8 5.7,-8.6 5.7,-14.5c0,-5.8 -1.9,-10.6 -5.7,-14.5c-3.8,-3.8 -8.6,-5.7 -14.3,-5.7c-5.8,0 -10.6,1.9 -14.4,5.8c-3.8,3.8 -5.7,8.6 -5.7,14.4c0,5.8 1.9,10.6 5.7,14.4z" class="st6"/>
    <path id="svg_21" d="m647.2,39.999997l19.9,0l-0.8,95.5l-14.7,0l-2.3,-6.1c-6.5,5.6 -14.2,8.3 -23.1,8.3c-11.1,0 -20.4,-3.7 -27.7,-11.1c-7.3,-7.4 -11,-16.7 -11,-27.9c0,-5.5 1,-10.7 2.9,-15.5c2,-4.8 4.6,-8.9 8,-12.4c3.4,-3.4 7.5,-6.1 12.3,-8.1c4.8,-2 10,-3 15.5,-3c7.5,0 14.3,2 20.3,6l0.7,-25.7l0,0zm-33.7,73.2c3.8,3.8 8.6,5.7 14.3,5.7c5.8,0 10.6,-1.9 14.4,-5.8c3.8,-3.8 5.7,-8.6 5.7,-14.4c0,-5.8 -1.9,-10.6 -5.7,-14.4c-3.8,-3.8 -8.6,-5.8 -14.4,-5.8c-5.8,0 -10.6,1.9 -14.3,5.7c-3.8,3.8 -5.7,8.6 -5.7,14.5c0,5.9 1.9,10.7 5.7,14.5z" class="st6"/>
    <path id="svg_22" d="m756.9,98.499997c0,2 -0.1,4 -0.4,5.9l-55.8,0c0.8,5 2.8,8.9 6,11.6c3.2,2.7 7.2,4 12,4c3.4,0 6.5,-0.7 9.2,-2.3c2.8,-1.5 4.9,-3.6 6.4,-6.3l20.9,0c-2.7,8.1 -7.3,14.4 -13.8,19.2c-6.6,4.7 -14.1,7.1 -22.7,7.1c-7.2,0 -13.6,-1.7 -19.5,-5.1c-5.8,-3.4 -10.4,-8.1 -13.8,-14c-3.3,-6 -5,-12.6 -5,-19.8c0,-7.3 1.7,-13.9 5,-19.9c3.3,-6 7.9,-10.6 13.7,-14c5.8,-3.4 12.3,-5.1 19.6,-5.1c7.4,0 14,1.8 19.9,5.2c5.9,3.5 10.4,8.2 13.5,14c3.3,5.9 4.8,12.4 4.8,19.5l0,0zm-38,-21.7c-4.4,0 -8.1,1.2 -11.2,3.7c-3,2.5 -5.2,5.9 -6.3,10.3l35.6,0c-1.4,-4.5 -3.6,-7.9 -6.8,-10.3c-3.1,-2.5 -6.9,-3.7 -11.3,-3.7z" class="st6"/>
    <path id="svg_23" d="m469.2,28.399997c6.4,0 11.6,5.2 11.6,11.6c0,6.4 -5.2,11.6 -11.6,11.6c-6.4,0 -11.6,-5.2 -11.6,-11.6c-0.1,-6.4 5.1,-11.6 11.6,-11.6z" class="st6"/>
   </g>
  </g>
 </g>
</svg>